<svg width="1280" height="640" viewBox="0 0 1280 640" xmlns="http://www.w3.org/2000/svg">
  <defs>
    <!-- Background gradient (deep ocean) -->
    <linearGradient id="bgGrad" x1="0%" y1="0%" x2="100%" y2="100%">
      <stop offset="0%" style="stop-color:#0d1a2a;stop-opacity:1" />
      <stop offset="100%" style="stop-color:#1a2a3a;stop-opacity:1" />
    </linearGradient>
    <!-- Screen gradient (ocean-like) -->
    <linearGradient id="screenGrad" x1="0%" y1="0%" x2="100%" y2="100%">
      <stop offset="0%" style="stop-color:#1a2a3a;stop-opacity:1" />
      <stop offset="100%" style="stop-color:#0d1a2a;stop-opacity:1" />
    </linearGradient>
    <!-- Whale shark body gradient -->
    <linearGradient id="whaleGrad" x1="0%" y1="0%" x2="0%" y2="100%">
      <stop offset="0%" style="stop-color:#5577aa;stop-opacity:1" />
      <stop offset="100%" style="stop-color:#334466;stop-opacity:1" />
    </linearGradient>
    <!-- Glow filter -->
    <filter id="glow" x="-50%" y="-50%" width="200%" height="200%">
      <feGaussianBlur stdDeviation="4" result="coloredBlur"/>
      <feMerge>
        <feMergeNode in="coloredBlur"/>
        <feMergeNode in="SourceGraphic"/>
      </feMerge>
    </filter>
  </defs>
  
  <!-- Background -->
  <rect width="1280" height="640" fill="url(#bgGrad)"/>
  
  <!-- Decorative grid pattern -->
  <g opacity="0.05">
    <line x1="0" y1="160" x2="1280" y2="160" stroke="#ffffff" stroke-width="1"/>
    <line x1="0" y1="320" x2="1280" y2="320" stroke="#ffffff" stroke-width="1"/>
    <line x1="0" y1="480" x2="1280" y2="480" stroke="#ffffff" stroke-width="1"/>
    <line x1="320" y1="0" x2="320" y2="640" stroke="#ffffff" stroke-width="1"/>
    <line x1="640" y1="0" x2="640" y2="640" stroke="#ffffff" stroke-width="1"/>
    <line x1="960" y1="0" x2="960" y2="640" stroke="#ffffff" stroke-width="1"/>
  </g>
  
  <!-- Logo: TV with Whale Shark (scaled up version of icon) -->
  <g transform="translate(120, 160)">
    <!-- TV Frame -->
    <rect x="0" y="0" width="216" height="152" rx="20" ry="20" fill="#383848"/>
    
    <!-- Screen (ocean-like dark blue) -->
    <rect x="12" y="12" width="192" height="128" rx="12" ry="12" fill="url(#screenGrad)"/>
    
    <!-- Whale Shark on Screen -->
    <!-- Main Body -->
    <ellipse cx="108" cy="76" rx="76" ry="36" fill="url(#whaleGrad)"/>
    
    <!-- Head (wider front) -->
    <ellipse cx="40" cy="76" rx="28" ry="32" fill="url(#whaleGrad)"/>
    
    <!-- Flat head shape -->
    <rect x="20" y="52" width="40" height="48" rx="8" fill="url(#whaleGrad)"/>
    
    <!-- Tail fin -->
    <path d="M180,76 L200,52 L196,76 L200,100 Z" fill="url(#whaleGrad)"/>
    
    <!-- Dorsal fin -->
    <path d="M100,40 L112,20 L124,40 Z" fill="url(#whaleGrad)"/>
    
    <!-- Pectoral fin -->
    <ellipse cx="74" cy="104" rx="20" ry="8" fill="#445577" transform="rotate(-20 74 104)"/>
    
    <!-- Whale shark spots (white dots pattern) -->
    <circle cx="64" cy="64" r="4" fill="#aaccee" opacity="0.7"/>
    <circle cx="84" cy="56" r="3" fill="#aaccee" opacity="0.7"/>
    <circle cx="104" cy="60" r="4" fill="#aaccee" opacity="0.7"/>
    <circle cx="128" cy="56" r="3" fill="#aaccee" opacity="0.7"/>
    <circle cx="148" cy="64" r="3" fill="#aaccee" opacity="0.7"/>
    <circle cx="76" cy="76" r="3" fill="#aaccee" opacity="0.6"/>
    <circle cx="96" cy="72" r="4" fill="#aaccee" opacity="0.6"/>
    <circle cx="120" cy="72" r="3" fill="#aaccee" opacity="0.6"/>
    <circle cx="140" cy="76" r="4" fill="#aaccee" opacity="0.6"/>
    <circle cx="160" cy="72" r="3" fill="#aaccee" opacity="0.6"/>
    <circle cx="88" cy="88" r="3" fill="#aaccee" opacity="0.5"/>
    <circle cx="112" cy="92" r="3" fill="#aaccee" opacity="0.5"/>
    <circle cx="136" cy="88" r="3" fill="#aaccee" opacity="0.5"/>
    
    <!-- Belly (lighter underside) -->
    <ellipse cx="108" cy="100" rx="60" ry="12" fill="#8899bb" opacity="0.6"/>
    
    <!-- Gill slits -->
    <line x1="56" y1="64" x2="60" y2="80" stroke="#334455" stroke-width="3" stroke-linecap="round"/>
    <line x1="64" y1="62" x2="68" y2="82" stroke="#334455" stroke-width="3" stroke-linecap="round"/>
    <line x1="72" y1="60" x2="76" y2="84" stroke="#334455" stroke-width="3" stroke-linecap="round"/>
    
    <!-- Eye -->
    <circle cx="32" cy="72" r="6" fill="#1a2a3a"/>
    <circle cx="30" cy="70" r="2" fill="#ffffff" opacity="0.6"/>
    
    <!-- Mouth line -->
    <path d="M20,84 Q32,92 52,88" stroke="#334455" stroke-width="3" fill="none" stroke-linecap="round"/>
    
    <!-- TV Stand -->
    <rect x="72" y="152" width="72" height="10" rx="4" ry="4" fill="#383848"/>
    <rect x="52" y="162" width="112" height="16" rx="6" ry="6" fill="#2a2a35"/>
    
    <!-- Power LED -->
    <circle cx="196" cy="136" r="6" fill="#44dd66" filter="url(#glow)"/>
  </g>
  
  <!-- Title -->
  <text x="400" y="280" font-family="Arial, sans-serif" font-size="80" font-weight="bold" fill="#ffffff">RhincoTV</text>
  
  <!-- Tagline -->
  <text x="400" y="360" font-family="Arial, sans-serif" font-size="36" fill="#8899bb">Couch-friendly Game Launcher for Linux</text>
  
  <!-- Feature highlights -->
  <g transform="translate(400, 420)" font-family="Arial, sans-serif" font-size="24" fill="#7788aa">
    <circle cx="0" cy="-8" r="6" fill="#44dd66"/>
    <text x="20" y="0">Controller Support</text>
    
    <circle cx="280" cy="-8" r="6" fill="#44dd66"/>
    <text x="300" y="0">10-foot UI</text>
    
    <circle cx="480" cy="-8" r="6" fill="#44dd66"/>
    <text x="500" y="0">Open Source</text>
  </g>
</svg>
